<svg xmlns="http://www.w3.org/2000/svg" width="100" height="101" fill="none"><g clip-path="url(#a)"><path fill="#B68C2D" d="M58.309 85.898c.543-.135 1.026-.13 1.449.012.414.145.766.4 1.054.765.288.365.515.816.68 1.351l-1.086.603a5.745 5.745 0 0 0-.39-.93 1.88 1.88 0 0 0-.599-.667c-.234-.148-.518-.18-.852-.098-.341.085-.574.241-.7.47-.13.238-.15.536-.062.893.105.427.287.744.544.952.26.216.57.42.93.61l1.929 1.006c.378.195.68.433.906.715.228.29.4.671.518 1.145.17.69.105 1.275-.196 1.753-.302.479-.795.802-1.478.971a2.962 2.962 0 0 1-1.015.09 1.68 1.68 0 0 1-.82-.266 2.145 2.145 0 0 1-.644-.656 4.177 4.177 0 0 1-.498-1.014l1.043-.579c.1.305.217.577.35.816.135.246.311.425.528.536.211.12.48.14.806.06.326-.08.56-.233.702-.458.136-.215.162-.493.078-.834-.072-.288-.177-.513-.316-.676a2.256 2.256 0 0 0-.619-.453l-1.94-1.002a5.081 5.081 0 0 1-1.22-.885c-.377-.36-.639-.834-.785-1.424-.115-.466-.118-.893-.009-1.283.112-.382.316-.704.614-.967.29-.261.655-.447 1.098-.556Z"/><path fill="#B68C2D" d="M54.025 86.638c.699-.087 1.252-.015 1.66.217.408.231.71.589.907 1.072.199.492.34 1.075.424 1.75l.795 6.397-1.286.16-.803-6.456a7.122 7.122 0 0 0-.224-1.122c-.098-.334-.251-.59-.458-.765-.216-.175-.51-.24-.883-.193-.381.048-.65.182-.809.403-.158.221-.243.506-.256.855-.014.348.005.729.057 1.142l.803 6.456-1.275.158-.795-6.396c-.084-.675-.09-1.275-.018-1.8.072-.517.278-.938.617-1.263.33-.323.845-.528 1.544-.615ZM51.764 86.989l-.158 9.721-.924-.015-2.656-6.502-.105 6.457-1.128-.018.158-9.722.864.014 2.689 6.683.107-6.637 1.153.019Z"/><path fill="#B68C2D" d="M44.681 86.48c.556.069 1.006.245 1.35.53.336.283.573.647.712 1.092.138.444.189.946.152 1.506l-1.231.174c.018-.344.007-.68-.033-1.007a1.88 1.88 0 0 0-.32-.838c-.166-.222-.42-.355-.76-.397-.35-.043-.624.02-.823.189-.207.176-.333.446-.378.812-.054.437.002.798.168 1.085.165.294.382.596.65.903l1.444 1.63c.283.317.48.648.59.992.11.352.135.77.075 1.255-.087.707-.357 1.23-.81 1.569-.454.339-1.03.465-1.729.379a2.967 2.967 0 0 1-.981-.279 1.68 1.68 0 0 1-.67-.542 2.148 2.148 0 0 1-.368-.844c-.081-.324-.115-.7-.103-1.125l1.182-.169a4.66 4.66 0 0 0 .035.888c.038.278.139.508.302.69.154.188.398.303.732.344.333.042.606-.017.82-.176.204-.153.328-.403.37-.753.037-.294.02-.542-.052-.744a2.256 2.256 0 0 0-.416-.644l-1.456-1.632a5.079 5.079 0 0 1-.823-1.263c-.224-.47-.299-1.008-.224-1.612.059-.476.21-.877.45-1.202.242-.317.548-.545.92-.684.364-.14.773-.183 1.225-.127Z"/><path fill="#B68C2D" d="m42.77 86.271-2.21 9.469-3.67-.856.23-.982 2.349.548.73-3.133-1.905-.444.218-.936 1.906.445.81-3.472-2.373-.554.22-.947 3.694.862ZM38.233 85.047l-2.828 8.243 1.555.534-.327.954-4.349-1.493.328-.953 1.51.518 2.828-8.243 1.283.44ZM31.952 82.145c.494.265.85.592 1.068.981.21.386.3.81.27 1.275-.032.465-.166.952-.402 1.46l-1.211-.282c.141-.314.252-.631.333-.951a1.88 1.88 0 0 0 .004-.897c-.075-.267-.263-.482-.567-.645-.31-.166-.588-.206-.834-.12-.257.09-.472.296-.646.62-.208.388-.287.746-.235 1.073.048.334.141.693.28 1.077l.758 2.04c.15.399.214.779.193 1.14-.025.368-.153.767-.383 1.197-.337.627-.778 1.018-1.323 1.17-.545.153-1.128.063-1.748-.27a2.966 2.966 0 0 1-.815-.614 1.68 1.68 0 0 1-.43-.748 2.147 2.147 0 0 1-.038-.92c.042-.332.146-.694.31-1.086l1.164.27c-.13.293-.226.573-.287.84a1.26 1.26 0 0 0 .032.752c.075.232.261.427.557.586.297.158.573.202.83.13.244-.067.45-.257.617-.567.14-.26.213-.499.219-.713 0-.219-.053-.469-.156-.751l-.768-2.047a5.082 5.082 0 0 1-.312-1.475c-.039-.52.086-1.048.373-1.584.227-.423.512-.743.855-.959.339-.208.707-.31 1.104-.306.39 0 .786.108 1.188.324Z"/><path fill="#B68C2D" d="M28.293 79.83c.538.38.893.79 1.066 1.227.173.438.192.899.056 1.383-.14.492-.397 1-.768 1.525l-2.137 3.022c-.372.524-.759.925-1.161 1.202-.414.278-.848.405-1.302.379-.465-.024-.967-.227-1.505-.607-.538-.38-.893-.784-1.064-1.21a2.077 2.077 0 0 1-.066-1.347c.12-.476.366-.977.737-1.502l2.144-3.031c.367-.519.76-.92 1.178-1.206.411-.29.851-.431 1.32-.425.463.013.964.21 1.502.59Zm-.62.876c-.295-.209-.56-.307-.794-.296a1.13 1.13 0 0 0-.668.296c-.21.186-.42.427-.628.722l-2.472 3.494a3.877 3.877 0 0 0-.457.814c-.101.254-.115.49-.043.708.067.225.248.442.544.65.295.21.563.31.804.304.23-.005.448-.097.653-.277.202-.172.406-.406.615-.702l2.472-3.494c.209-.295.366-.573.471-.833.1-.254.12-.497.057-.728-.074-.23-.259-.449-.554-.658Z"/><path fill="#B68C2D" d="m26.438 78.512-6.514 7.195-1.448-1.311c-.48-.434-.817-.859-1.013-1.273a1.734 1.734 0 0 1-.138-1.24c.098-.418.353-.855.766-1.31.252-.28.512-.507.78-.684.264-.172.533-.278.808-.32.27-.037.543.007.82.129l2.244-4.532.968.877-2.114 4.228.781.707 3.057-3.375 1.003.909Zm-4.71 3.186-.383-.346c-.284-.257-.547-.43-.79-.52a.963.963 0 0 0-.72.01c-.238.097-.497.299-.776.607-.38.42-.577.792-.589 1.115-.018.329.202.7.658 1.113l.444.402 2.155-2.381Z"/><path fill="#B68C2D" d="m23.024 75.293-7.309 6.412-2.486-2.833.758-.665 1.591 1.813 2.419-2.121-1.29-1.471.721-.633 1.29 1.47 2.68-2.35-1.606-1.832.73-.642 2.502 2.852Z"/><path fill="#B68C2D" d="m20.69 72.59-7.982 5.551-.528-.759 3.725-5.954-5.301 3.688-.645-.927 7.982-5.551.494.71-3.853 6.086 5.45-3.79.658.945ZM17.54 67.684 9.862 71.81l.778 1.449-.888.477-2.176-4.05.888-.477.755 1.406 7.677-4.125.642 1.195ZM15.5 62.992c.242.61.316 1.145.222 1.603a2.103 2.103 0 0 1-.706 1.184c-.385.333-.874.617-1.47.853L10.12 67.99c-.595.236-1.136.36-1.622.372-.496.007-.926-.124-1.291-.393-.375-.273-.684-.714-.925-1.325-.242-.61-.318-1.139-.229-1.587.09-.449.315-.835.677-1.16.36-.331.837-.615 1.432-.85l3.437-1.362c.588-.233 1.134-.354 1.637-.365.501-.017.945.104 1.332.364.38.262.69.699.932 1.309Zm-.993.393c-.133-.334-.3-.56-.502-.679a1.126 1.126 0 0 0-.717-.116c-.277.04-.582.127-.917.26l-3.962 1.57c-.335.132-.61.275-.824.429-.222.157-.362.346-.42.567-.067.224-.034.504.099.838.132.335.301.565.506.69.194.122.426.164.695.126.261-.035.56-.119.895-.251l3.961-1.57a4.17 4.17 0 0 0 .847-.438c.222-.157.37-.349.443-.576.063-.232.028-.515-.104-.85ZM14.124 59.017l-9.529 1.848-.371-1.918c-.124-.635-.14-1.177-.047-1.626.084-.448.295-.806.634-1.075.329-.276.795-.472 1.399-.589a4.15 4.15 0 0 1 1.034-.078c.314.02.593.096.838.228.237.133.43.331.58.595l4.513-2.278.249 1.282-4.229 2.114.2 1.035 4.471-.867.258 1.33Zm-5.68-.278-.099-.505c-.073-.377-.18-.674-.32-.89a.963.963 0 0 0-.582-.425c-.248-.065-.577-.059-.984.02-.557.108-.938.288-1.141.539-.212.252-.259.68-.142 1.285l.114.588 3.153-.612Z"/><path fill="#B68C2D" d="m13.28 54.371-9.688.814-.316-3.756 1.005-.084.202 2.404 3.206-.27-.164-1.949.957-.08.164 1.95 3.552-.299-.204-2.428.97-.081.317 3.78Z"/><path fill="#B68C2D" d="M13.174 48.48c-.012.56-.141 1.025-.39 1.396a2.282 2.282 0 0 1-1.013.82c-.428.183-.922.285-1.483.305l-.299-1.207a5.75 5.75 0 0 0 1-.135 1.88 1.88 0 0 0 .8-.404c.204-.188.31-.454.317-.798.007-.352-.084-.618-.272-.798-.196-.188-.479-.286-.846-.294-.44-.009-.795.084-1.063.279-.276.194-.553.44-.831.739L7.62 49.985a2.767 2.767 0 0 1-.927.69c-.339.145-.753.212-1.24.202-.713-.014-1.26-.23-1.644-.646-.384-.416-.568-.976-.554-1.68.008-.384.067-.72.177-1.005a1.68 1.68 0 0 1 .471-.723c.212-.195.48-.346.802-.451a4.178 4.178 0 0 1 1.109-.218l.288 1.159c-.32.017-.614.06-.879.126a1.26 1.26 0 0 0-.656.37c-.172.173-.26.427-.268.763-.007.336.08.602.26.798.172.188.434.285.786.293.296.006.541-.037.735-.13.194-.1.394-.26.598-.48l1.474-1.614a5.084 5.084 0 0 1 1.173-.948c.445-.271.972-.4 1.58-.388.48.01.894.119 1.242.326.34.207.599.488.775.844.177.348.261.75.252 1.206ZM13.315 45.49l-8.644-1.109-.209 1.632-1-.129.585-4.56 1 .128-.203 1.584 8.644 1.109-.173 1.345ZM13.567 43.579l-8.956-4.24.3-1.268 9.91.222-.296 1.245-2.477-.132-.456 1.921 2.268 1.018-.293 1.234Zm-2.876-2.65.372-1.572-4.437-.216 4.065 1.788Z"/><path fill="#B68C2D" d="M15.663 36.583c-.246.66-.566 1.117-.96 1.371-.393.255-.85.358-1.37.31-.527-.052-1.11-.197-1.747-.434l-6.04-2.253.453-1.214 6.096 2.273c.39.145.756.252 1.098.32.342.067.639.05.89-.053.255-.11.448-.341.58-.693.134-.36.14-.661.016-.904-.123-.242-.336-.45-.639-.622a7.128 7.128 0 0 0-1.04-.478l-6.095-2.273.449-1.203 6.04 2.252c.637.238 1.172.51 1.604.816.425.304.703.68.834 1.13.133.444.077.995-.169 1.655ZM16.453 34.366l-8.598-4.541.914-1.73c.303-.573.631-1.006.985-1.3a1.736 1.736 0 0 1 1.17-.44c.43-.009.917.131 1.461.419.333.176.619.372.857.588.232.213.402.448.51.704.102.253.128.53.079.829l4.954 1.055-.611 1.157-4.628-1.005-.493.934 4.033 2.13-.633 1.2Zm-4.26-3.784.241-.456c.18-.34.283-.639.31-.896a.965.965 0 0 0-.188-.697c-.153-.207-.414-.408-.782-.602-.502-.265-.912-.364-1.228-.296-.324.064-.63.37-.917.914l-.28.53 2.844 1.503Z"/><path fill="#B68C2D" d="m18.391 30.72-6.81-7.24.747-1.076 9.17 3.84-.732 1.054-2.264-1.031-1.13 1.627 1.745 1.78-.726 1.046Zm-1.715-3.529.924-1.33-4.064-1.829 3.14 3.16Z"/><path fill="#B68C2D" d="M21.191 26.774 13.937 20.3l.616-.69 6.656 2.24-4.818-4.3.751-.841 7.254 6.474-.575.645-6.815-2.334 4.952 4.42-.767.86ZM25.208 22.51l-5.84-6.535-1.233 1.101-.675-.756 3.448-3.08.675.756-1.197 1.07 5.839 6.536-1.017.909ZM36.105 15.808c-.516.224-.994.301-1.436.23a2.292 2.292 0 0 1-1.172-.58c-.346-.313-.646-.721-.9-1.223l.975-.779c.16.307.34.592.542.854.209.26.444.447.703.561.257.107.544.092.86-.046.324-.14.529-.334.614-.581.09-.258.06-.556-.087-.895-.176-.405-.409-.689-.699-.852a5.428 5.428 0 0 0-1.022-.448l-2.078-.672a2.774 2.774 0 0 1-1.016-.556c-.275-.249-.51-.598-.705-1.047-.285-.655-.318-1.244-.1-1.768.22-.524.653-.927 1.3-1.209.354-.154.684-.24.99-.26.312-.03.597.012.857.127.267.111.516.292.747.542.236.239.457.545.663.92l-.935.748a4.671 4.671 0 0 0-.483-.749 1.264 1.264 0 0 0-.613-.443c-.23-.084-.498-.059-.808.076-.309.134-.515.324-.618.57-.099.236-.078.516.063.84.118.272.26.478.425.616.173.135.402.25.688.344l2.09.668c.466.147.918.37 1.355.67.434.294.772.72 1.016 1.28.192.441.266.864.223 1.268-.047.397-.195.75-.445 1.06-.243.307-.575.552-.994.734Z"/><path fill="#B68C2D" d="M40.194 14.466c-.676.197-1.234.215-1.674.051-.44-.163-.795-.467-1.067-.913-.275-.454-.507-1.007-.698-1.66l-1.81-6.187 1.245-.363 1.826 6.244c.117.4.25.757.4 1.071.151.315.343.542.575.682.24.139.542.155.903.05.368-.109.613-.284.733-.528.121-.244.16-.539.117-.885a7.121 7.121 0 0 0-.24-1.118L38.68 4.666l1.232-.36 1.81 6.186c.19.653.293 1.244.306 1.774.01.522-.125.97-.408 1.345-.274.372-.75.657-1.425.855ZM42.42 13.763 40.96 4.137 41.876 4l3.702 5.98-.969-6.394 1.118-.17 1.458 9.626-.856.13-3.764-6.152.995 6.571-1.14.173Z"/><path fill="#B68C2D" d="M49.432 13.148c-.56.02-1.031-.084-1.416-.31a2.282 2.282 0 0 1-.874-.967c-.207-.417-.336-.905-.388-1.463l1.188-.366c.036.343.1.673.191.99.1.317.248.576.448.777.199.193.47.284.814.272.352-.013.612-.118.782-.316.177-.207.259-.494.246-.862-.016-.44-.128-.788-.337-1.045a5.414 5.414 0 0 0-.785-.789L47.62 7.687a2.766 2.766 0 0 1-.74-.887c-.163-.33-.254-.74-.27-1.228-.026-.712.159-1.27.553-1.677.394-.406.943-.621 1.647-.646.384-.014.721.027 1.013.12.3.086.548.23.748.43.207.202.372.46.495.776.131.308.224.673.28 1.095l-1.142.353a4.66 4.66 0 0 0-.174-.871 1.26 1.26 0 0 0-.407-.634c-.182-.162-.44-.237-.776-.225-.336.011-.597.113-.783.303-.177.183-.26.45-.248.802.01.296.067.538.17.726.11.189.281.379.512.571l1.694 1.382c.38.307.717.68 1.012 1.117.296.43.454.95.475 1.557.017.48-.068.9-.256 1.258-.188.351-.454.625-.8.821-.337.196-.734.302-1.19.318Z"/><path fill="#B68C2D" d="m51.367 13.046.673-9.7 3.76.262-.07 1.006-2.407-.168-.223 3.21 1.952.135-.066.958-1.952-.135-.247 3.556 2.431.169-.067.97-3.784-.263ZM56.052 13.535l1.472-8.59-1.621-.277.17-.994 4.532.776-.17.994-1.574-.27-1.472 8.59-1.337-.229ZM62.737 15.35c-.532-.186-.938-.454-1.216-.806a2.296 2.296 0 0 1-.47-1.224c-.042-.466.014-.97.169-1.514l1.247.089c-.09.334-.15.667-.18.998-.023.333.023.63.137.89.117.254.338.438.665.551.335.117.617.112.848-.012.24-.13.422-.369.544-.718.145-.419.166-.786.063-1.103-.1-.324-.25-.666-.45-1.025L63.02 9.569a2.783 2.783 0 0 1-.371-1.1c-.034-.37.03-.787.191-1.25.235-.677.611-1.134 1.128-1.372.517-.238 1.11-.24 1.78-.008.364.127.666.287.906.48.25.19.431.415.545.676.121.263.182.566.183.907a4.2 4.2 0 0 1-.136 1.128l-1.198-.084c.083-.312.134-.605.152-.88a1.267 1.267 0 0 0-.15-.742c-.112-.218-.328-.382-.647-.493-.32-.111-.6-.11-.844 0-.233.107-.408.328-.524.662-.097.282-.132.53-.105.743.036.217.127.458.274.722l1.087 1.91c.244.426.425.898.543 1.416.121.51.081 1.055-.12 1.633-.158.456-.39.818-.697 1.087-.303.26-.653.42-1.048.48-.388.06-.798.016-1.231-.135Z"/><path fill="#B68C2D" d="M66.665 17.102c-.59-.29-1.006-.635-1.246-1.038a2.108 2.108 0 0 1-.276-1.353c.06-.506.231-1.047.513-1.623l1.621-3.317c.282-.576.599-1.032.95-1.369.364-.34.77-.534 1.222-.58.462-.052.988.067 1.579.356.59.289 1.004.63 1.24 1.022.237.392.33.83.281 1.315-.042.488-.204 1.02-.486 1.596l-1.626 3.327c-.279.57-.6 1.028-.967 1.375-.359.351-.77.56-1.231.63-.459.061-.983-.053-1.574-.341Zm.47-.962c.324.159.601.213.83.165.233-.056.436-.189.61-.398.177-.217.345-.487.503-.811l1.875-3.836c.159-.324.265-.615.32-.874.059-.266.035-.5-.07-.704-.103-.21-.316-.395-.64-.553-.324-.159-.604-.215-.84-.17-.226.041-.426.167-.6.376-.17.203-.334.466-.493.79l-1.874 3.835a4.18 4.18 0 0 0-.331.896c-.059.266-.039.507.06.725.11.214.326.4.65.56Z"/><path fill="#B68C2D" d="m68.748 18.042 5.347-8.167 1.644 1.076c.544.356.946.725 1.206 1.106.263.375.374.778.33 1.21-.032.431-.217.905-.556 1.423-.207.316-.43.583-.669.801-.234.211-.485.36-.751.444-.263.078-.541.078-.836 0l-1.52 4.853-1.1-.72 1.44-4.53-.887-.582-2.51 3.832-1.138-.746Zm4.182-3.902.434.284c.323.21.611.342.866.394.254.05.492.01.714-.123.222-.134.447-.375.676-.725.313-.477.45-.877.411-1.2-.034-.33-.31-.664-.827-1.002l-.504-.33-1.77 2.702Z"/><path fill="#B68C2D" d="m72.606 20.731 6.202-7.488 2.903 2.404-.643.777-1.858-1.54-2.052 2.478 1.507 1.248-.613.74-1.507-1.248-2.274 2.746 1.877 1.554-.62.749-2.922-2.42Z"/><path fill="#B68C2D" d="m75.336 23.028 7.002-6.747.641.666-2.734 6.469 4.65-4.481.783.812-7.001 6.747-.6-.622 2.839-6.62-4.78 4.606-.8-.83ZM79.231 27.38l6.924-5.293-1-1.306.802-.612 2.792 3.652-.8.612-.97-1.268-6.924 5.293-.824-1.077ZM81.978 31.682c-.335-.564-.492-1.08-.472-1.548.02-.468.19-.894.51-1.28.328-.389.767-.747 1.318-1.073l3.169-1.88c.55-.326 1.065-.534 1.543-.622.489-.085.934-.024 1.337.184.413.21.787.598 1.122 1.163.334.564.493 1.075.475 1.531-.017.457-.179.874-.486 1.252-.302.384-.729.739-1.28 1.065l-3.179 1.886c-.543.322-1.063.528-1.559.618-.492.096-.95.046-1.372-.15-.416-.2-.792-.581-1.126-1.146Zm.918-.544c.184.31.385.506.603.591.224.081.466.082.726.002a4.17 4.17 0 0 0 .865-.401l3.664-2.173a3.86 3.86 0 0 0 .746-.554c.195-.19.303-.399.327-.626.03-.232-.047-.503-.23-.813-.184-.31-.387-.51-.61-.602-.21-.089-.445-.093-.705-.014a3.862 3.862 0 0 0-.844.39l-3.665 2.172c-.31.184-.565.373-.766.567-.195.19-.31.402-.347.638-.026.239.053.513.236.822ZM84.015 35.403l9.111-3.395.683 1.833c.227.608.331 1.14.315 1.6-.01.456-.16.844-.45 1.166-.28.326-.708.597-1.285.812a4.156 4.156 0 0 1-1.01.248 2.038 2.038 0 0 1-.865-.087 1.517 1.517 0 0 1-.67-.493l-4.085 2.995-.457-1.226 3.83-2.785-.369-.99-4.274 1.593-.474-1.27Zm5.66-.661.18.483c.134.36.288.636.461.827.174.192.39.3.646.323.257.024.58-.036.97-.182.532-.198.878-.438 1.038-.72.167-.284.143-.715-.072-1.292l-.21-.563-3.014 1.124Z"/><path fill="#B68C2D" d="m85.56 39.834 9.432-2.334.904 3.656-.978.242-.579-2.34-3.12.772.47 1.898-.932.23-.47-1.897-3.458.855.585 2.364-.943.233-.91-3.68Z"/><path fill="#B68C2D" d="M86.612 45.633c-.079-.554-.025-1.035.16-1.44.186-.399.475-.722.868-.972s.865-.43 1.415-.54l.489 1.144a5.75 5.75 0 0 0-.965.294 1.88 1.88 0 0 0-.725.526c-.171.219-.233.498-.185.839.05.348.182.596.396.744.224.154.518.205.883.154.436-.062.77-.21 1.004-.445.24-.236.475-.524.702-.863l1.197-1.818c.233-.356.5-.633.804-.829.312-.197.71-.33 1.192-.399.705-.1 1.28.025 1.726.374.445.35.717.873.816 1.57.054.38.05.72-.013 1.02a1.68 1.68 0 0 1-.35.789 2.148 2.148 0 0 1-.718.574 4.179 4.179 0 0 1-1.06.392l-.47-1.097a4.66 4.66 0 0 0 .847-.265c.26-.11.455-.267.588-.471.142-.198.19-.463.142-.796-.047-.333-.175-.581-.384-.746-.2-.157-.475-.211-.823-.162-.293.041-.528.123-.705.245-.175.13-.347.32-.513.57l-1.196 1.83c-.265.409-.6.783-1.005 1.123-.396.34-.896.551-1.498.636-.475.068-.901.027-1.278-.122a2.024 2.024 0 0 1-.9-.709c-.23-.315-.377-.698-.441-1.15ZM86.935 48.6l8.71-.269-.05-1.643 1.008-.031.141 4.595-1.007.031-.05-1.596-8.71.268-.042-1.356ZM87.017 50.548l9.55 2.76-.095 1.304-9.847 1.371.093-1.281 2.474-.267.143-1.975-2.41-.643.093-1.27Zm3.274 2.162-.116 1.616 4.428-.499-4.312-1.117Z"/><path fill="#B68C2D" d="M86.035 57.79c.137-.691.38-1.194.728-1.508.348-.315.782-.49 1.303-.525.529-.034 1.127.016 1.794.148l6.323 1.256-.253 1.271-6.381-1.267a7.122 7.122 0 0 0-1.135-.14c-.349-.012-.639.053-.87.195-.234.15-.388.408-.461.777-.075.377-.032.675.128.895.16.22.404.39.73.512.327.122.695.223 1.103.304l6.381 1.267-.25 1.26-6.322-1.255c-.667-.133-1.24-.316-1.715-.549-.468-.231-.803-.559-1.004-.982-.203-.416-.236-.97-.099-1.66ZM85.633 60.108l9.236 3.11-.626 1.86c-.207.615-.462 1.097-.765 1.443a1.74 1.74 0 0 1-1.087.625c-.424.077-.928.017-1.514-.18a4.162 4.162 0 0 1-.942-.445 2.045 2.045 0 0 1-.618-.614 1.52 1.52 0 0 1-.21-.807l-5.072-.249.418-1.243 4.74.251.339-1.003-4.334-1.46.435-1.288Zm4.823 3.059-.166.49c-.123.365-.177.677-.162.936a.967.967 0 0 0 .298.66c.185.18.475.337.87.47.54.182.96.213 1.263.095.31-.116.563-.466.76-1.052l.193-.57-3.056-1.03Z"/><path fill="#B68C2D" d="m84.282 64.006 7.876 6.064-.566 1.18-9.665-2.33.555-1.158 2.4.658.856-1.786-2.006-1.48.55-1.148Zm2.255 3.21-.7 1.462 4.303 1.157-3.603-2.618Z"/><path fill="#B68C2D" d="m82.149 68.342 8.19 5.242-.5.778-6.927-1.156 5.44 3.481-.609.95-8.189-5.24.466-.729 7.099 1.223-5.591-3.578.62-.97ZM78.841 73.174l6.798 5.49 1.036-1.282.786.635-2.896 3.586-.787-.635 1.006-1.246-6.797-5.49.854-1.058Z"/><path fill="url(#b)" d="M52.047 46.937a8.623 8.623 0 0 1 .35-1.904c.09-.36.22-.71.385-1.043a5.225 5.225 0 0 1 4.159-2.824h.107a5.233 5.233 0 0 0 3.655-2.046 13.54 13.54 0 0 1-3.5 6.025 13.62 13.62 0 0 1-1.086.98 8.46 8.46 0 0 0 2.078-.669 8.345 8.345 0 0 1-4.651 2.308c-.181.027-.362.043-.543.062a5.19 5.19 0 0 1 1.539-3.847c.196-.197.408-.378.635-.539-.65.264-1.241.656-1.735 1.154a5.114 5.114 0 0 0-.997 1.397c-.069.136-.13.276-.184.42-.08.17-.151.347-.212.526ZM39.317 60.93a5.194 5.194 0 0 1 3.659-2.047h.084a5.216 5.216 0 0 0 4.128-2.824c.167-.332.296-.681.384-1.042.09-.284.161-.573.216-.866.066-.343.11-.69.135-1.039-.05.185-.112.385-.177.554a5.179 5.179 0 0 1-1.181 1.816 5.27 5.27 0 0 1-1.74 1.154 5.213 5.213 0 0 0 1.943-2.716 5.274 5.274 0 0 0 .22-1.673c-.177 0-.362.034-.543.061a8.333 8.333 0 0 0-4.647 2.309 8.076 8.076 0 0 1 2.077-.67c-.382.304-.745.63-1.089.977a13.476 13.476 0 0 0-2.039 2.601c-.157.266-.338.581-.488.877-.41.815-.737 1.668-.978 2.547l.035-.019Zm-.224-21.595a5.233 5.233 0 0 1 2.047 3.659.573.573 0 0 0 0 .08 5.156 5.156 0 0 0 1.5 3.17 5.17 5.17 0 0 0 2.362 1.359 8.687 8.687 0 0 0 1.908.346 4.93 4.93 0 0 1-.977-.361 5.228 5.228 0 0 1-2.543-2.736 5.213 5.213 0 0 0 2.716 1.943 5.152 5.152 0 0 0 1.674.22c0-.178-.034-.362-.061-.54a8.333 8.333 0 0 0-2.309-4.65c.313.66.538 1.358.67 2.077a12.991 12.991 0 0 0-.981-1.089 13.418 13.418 0 0 0-3.478-2.528 13.6 13.6 0 0 0-2.544-.977l.016.027Zm14.793 13.889A5.264 5.264 0 0 0 52.212 53c0 .18.035.361.062.542a8.333 8.333 0 0 0 2.308 4.652 8.395 8.395 0 0 1-.67-2.078c.308.38.634.743.978 1.089a13.462 13.462 0 0 0 3.478 2.524c.814.412 1.667.74 2.547.98a5.206 5.206 0 0 1-2.047-3.659v-.084a5.213 5.213 0 0 0-3.866-4.528 8.561 8.561 0 0 0-1.905-.346c.188.047.373.106.554.177a5.236 5.236 0 0 1 2.966 2.916 5.267 5.267 0 0 0-.542-.635 5.184 5.184 0 0 0-2.19-1.346v.019Zm-19.152-3.047a5.19 5.19 0 0 1 4.032 1.139l.062.053c.93.767 2.099 1.184 3.304 1.182a5.236 5.236 0 0 0 2.628-.716 7.53 7.53 0 0 0 .77-.458c.29-.196.567-.411.83-.642-.167.099-.34.188-.519.265-.138.062-.28.12-.427.17a5.225 5.225 0 0 1-3.732-.135 5.228 5.228 0 0 0 3.29-.546c.498-.27.952-.617 1.342-1.028a8.352 8.352 0 0 0-5.344-2 8.5 8.5 0 0 1 1.924.996 13.858 13.858 0 0 0-4.74.32c-.296.072-.646.172-.966.276-.852.286-1.675.655-2.454 1.105v.019Zm19.41-1.154a5.225 5.225 0 0 1 4.163-.035 5.378 5.378 0 0 0-.831-.065 5.2 5.2 0 0 0-3.802 1.642 8.325 8.325 0 0 0 5.344 1.997 8.273 8.273 0 0 1-1.943-.996c.486.05.974.076 1.462.077a13.505 13.505 0 0 0 4.24-.674 13.428 13.428 0 0 0 2.493-1.108 5.182 5.182 0 0 1-4.032-1.139l-.061-.053a5.233 5.233 0 0 0-4.917-.924 5.136 5.136 0 0 0-1.016.458 7.54 7.54 0 0 0-.77.458c-.29.197-.567.411-.83.642a5.35 5.35 0 0 1 .5-.3v.02Zm-5.69 8.079c-.053.486-.08.974-.078 1.462a13.514 13.514 0 0 0 .674 4.24c.284.866.656 1.701 1.108 2.493a5.198 5.198 0 0 1 1.193-4.101 5.232 5.232 0 0 0 .923-4.917 4.938 4.938 0 0 0-.458-1.016 8.06 8.06 0 0 0-1.1-1.6 5.287 5.287 0 0 1 .435.95 5.225 5.225 0 0 1-.135 3.732c.043-.276.065-.556.065-.835a5.201 5.201 0 0 0-1.643-3.797 8.346 8.346 0 0 0-1.997 5.344 8.157 8.157 0 0 1 1.012-1.982v.027Zm1.392-22.345a5.182 5.182 0 0 1-1.143 4.036l-.057.065a5.224 5.224 0 0 0-.466 5.933 8.261 8.261 0 0 0 1.104 1.6c-.1-.167-.19-.34-.269-.52a7.037 7.037 0 0 1-.17-.426 5.29 5.29 0 0 1 .136-3.736 5.428 5.428 0 0 0-.066.835 5.201 5.201 0 0 0 1.643 3.797 8.345 8.345 0 0 0 1.997-5.34 8.329 8.329 0 0 1-.997 1.924 13.876 13.876 0 0 0-.127-3.843 14.119 14.119 0 0 0-.469-1.86 13.735 13.735 0 0 0-1.116-2.492v.027Z"/></g><defs><linearGradient id="b" x1="50" x2="50" y1="34.968" y2="65.505" gradientUnits="userSpaceOnUse"><stop stop-color="#EE4224"/><stop offset=".06" stop-color="#E55025"/><stop offset=".25" stop-color="#D56A27"/><stop offset=".44" stop-color="#C87929"/><stop offset=".63" stop-color="#BF822B"/><stop offset=".82" stop-color="#BA882C"/><stop offset="1" stop-color="#B88A2D"/></linearGradient><clipPath id="a"><path fill="#fff" d="M0 0h100v100.004H0z"/></clipPath></defs></svg>