<svg xmlns="http://www.w3.org/2000/svg" width="16" height="13" fill="none"><path fill="#fff" d="M14.106 3.198c.01.14.01.279.01.418 0 4.26-3.242 9.169-9.167 9.169A9.105 9.105 0 0 1 0 11.338c.26.03.509.04.778.04A6.456 6.456 0 0 0 4.78 10a3.229 3.229 0 0 1-3.013-2.234 3.429 3.429 0 0 0 1.458-.06A3.222 3.222 0 0 1 .638 4.544v-.04c.43.24.928.389 1.456.409A3.218 3.218 0 0 1 .658 2.23c0-.599.16-1.147.439-1.626a9.166 9.166 0 0 0 6.645 3.372c-.05-.24-.08-.489-.08-.738A3.221 3.221 0 0 1 10.884.015c.928 0 1.766.39 2.354 1.018a6.366 6.366 0 0 0 2.045-.778 3.216 3.216 0 0 1-1.417 1.776 6.46 6.46 0 0 0 1.856-.5 6.916 6.916 0 0 1-1.616 1.667Z"/></svg>