<svg xmlns="http://www.w3.org/2000/svg" width="17" height="17" fill="none"><path fill="#fff" d="M8.966 4.875a4.091 4.091 0 1 0 4.091 4.091 4.082 4.082 0 0 0-4.09-4.091Zm0 6.755a2.664 2.664 0 1 1 0-5.328 2.664 2.664 0 0 1 0 5.329Zm5.219-6.925a.998.998 0 1 1-1.996 0 .998.998 0 0 1 1.996 0Zm2.704.998a4.7 4.7 0 0 0-1.287-3.343 4.7 4.7 0 0 0-3.343-1.317c-1.297-.06-5.289-.06-6.586 0A4.72 4.72 0 0 0 2.33 2.33a4.7 4.7 0 0 0-1.287 3.343c-.06 1.297-.06 5.289 0 6.586a4.7 4.7 0 0 0 1.287 3.343 4.72 4.72 0 0 0 3.343 1.287c1.317.08 5.269.08 6.586 0a4.7 4.7 0 0 0 3.343-1.287 4.7 4.7 0 0 0 1.287-3.343c.06-1.297.06-5.289 0-6.586v.03Zm-1.696 7.983a2.693 2.693 0 0 1-1.517 1.517c-1.549.313-3.133.42-4.71.32a17.875 17.875 0 0 1-4.7-.32 2.695 2.695 0 0 1-1.517-1.517c-.419-1.058-.329-3.552-.329-4.71 0-1.157-.09-3.662.33-4.71A2.644 2.644 0 0 1 4.265 2.74a17.872 17.872 0 0 1 4.7-.319c1.577-.101 3.161.006 4.71.32a2.694 2.694 0 0 1 1.517 1.516c.419 1.058.32 3.553.32 4.71 0 1.158.099 3.662-.32 4.71v.01Z"/></svg>